<svg width="16" height="16" viewBox="0 0 16 16" fill="none" xmlns="http://www.w3.org/2000/svg">
<path d="M1.87477 2H5.24223L6.32764 4.71352L4.58398 5.87596C4.37533 6.01506 4.25 6.24923 4.25 6.5C4.25191 6.57022 4.25 6.50075 4.25 6.50075L4.25 6.50154L4.25001 6.50321L4.25003 6.507L4.25014 6.51625C4.25025 6.52316 4.25044 6.53156 4.25076 6.54139C4.25139 6.56105 4.25254 6.58647 4.25459 6.61727C4.2587 6.67884 4.26643 6.76208 4.28098 6.86388C4.31004 7.06735 4.36646 7.34608 4.47599 7.67467C4.69592 8.33445 5.12805 9.18871 5.96967 10.0303C6.81129 10.872 7.66555 11.3041 8.32533 11.524C8.65392 11.6335 8.93265 11.69 9.13612 11.719C9.23792 11.7336 9.32116 11.7413 9.38273 11.7454C9.41353 11.7475 9.43895 11.7486 9.45861 11.7492C9.46844 11.7496 9.47684 11.7497 9.48375 11.7499L9.493 11.75L9.49679 11.75L9.49846 11.75H9.49925C9.49925 11.75 9.58298 11.7454 9.5 11.75C9.78408 11.75 10.0438 11.5895 10.1708 11.3354L10.6731 10.3309L14 10.8853V14.1252C12.4167 14.3542 8.14056 14.5799 4.78033 11.2197C1.42011 7.85944 1.64579 3.58332 1.87477 2ZM5.80524 6.86456L7.15969 5.9616C7.74989 5.56813 7.98379 4.81503 7.72035 4.15644L6.63494 1.44291C6.40715 0.873426 5.85558 0.5 5.24223 0.5H1.83558C1.1542 0.5 0.512817 0.973371 0.400959 1.71268C0.146476 3.39463 -0.199909 8.36075 3.71967 12.2803C7.63925 16.1999 12.6054 15.8535 14.2873 15.599C15.0266 15.4872 15.5 14.8458 15.5 14.1644V10.8853C15.5 10.1521 14.9699 9.5263 14.2466 9.40575L10.9197 8.85127C10.2701 8.74301 9.62595 9.07105 9.33146 9.66004L9.07158 10.1798C8.9899 10.1597 8.89872 10.134 8.79967 10.101C8.33445 9.94591 7.68871 9.62805 7.03033 8.96967C6.37195 8.31129 6.05409 7.66555 5.89901 7.20033C5.85711 7.07462 5.82694 6.96159 5.80524 6.86456Z" fill="#333333"/>
</svg>
